<svg width="1751" height="200" viewBox="0 0 1751 200" fill="none" xmlns="http://www.w3.org/2000/svg">
<path d="M0.550001 197V3.79998H48.85V197H0.550001ZM118.359 197V3.79998H159.759L241.959 119.3V3.79998H290.559V197H248.859L166.659 81.8V197H118.359ZM421.593 200C408.793 200 396.793 199 385.593 197C374.593 195.2 365.093 192.5 357.093 188.9V147.8C365.893 151.6 375.593 154.7 386.193 157.1C396.993 159.5 407.193 160.7 416.793 160.7C428.793 160.7 437.693 159.6 443.493 157.4C449.493 155.2 452.493 150.4 452.493 143C452.493 138 450.993 134 447.993 131C445.193 128 440.493 125.4 433.893 123.2C427.493 120.8 418.693 118 407.493 114.8C394.293 110.8 383.793 106.4 375.993 101.6C368.193 96.6 362.593 90.6 359.193 83.6C355.793 76.6 354.093 68 354.093 57.8C354.093 39.4 360.693 25.3 373.893 15.5C387.093 5.69999 406.593 0.799987 432.393 0.799987C443.593 0.799987 454.493 1.69999 465.093 3.49999C475.693 5.09999 484.293 6.99999 490.893 9.19999V50.6C482.293 47.2 473.593 44.7 464.793 43.1C456.193 41.5 447.793 40.7 439.593 40.7C428.793 40.7 419.993 41.7 413.193 43.7C406.593 45.7 403.293 50.3 403.293 57.5C403.293 61.7 404.493 65.1 406.893 67.7C409.293 70.1 413.393 72.3 419.193 74.3C425.193 76.3 433.293 78.7 443.493 81.5C459.293 85.7 471.393 90.8 479.793 96.8C488.193 102.6 493.993 109.4 497.193 117.2C500.393 124.8 501.993 133.4 501.993 143C501.993 160 495.393 173.8 482.193 184.4C468.993 194.8 448.793 200 421.593 200ZM652.799 200C634.799 200 619.099 197.1 605.699 191.3C592.499 185.5 582.199 176.9 574.799 165.5C567.599 154.1 563.999 140.1 563.999 123.5V3.79998H612.299V119C612.299 132.4 615.799 142.4 622.799 149C629.799 155.6 639.799 158.9 652.799 158.9C665.799 158.9 675.799 155.6 682.799 149C689.799 142.4 693.299 132.4 693.299 119V3.79998H741.599V123.5C741.599 140.1 737.899 154.1 730.499 165.5C723.299 176.9 712.999 185.5 699.599 191.3C686.399 197.1 670.799 200 652.799 200ZM809.577 197V3.79998H857.877V159.8H949.077V197H809.577ZM1000.78 197L1074.58 3.79998H1126.78L1200.58 197H1150.18L1132.78 153.2H1068.28L1051.18 197H1000.78ZM1074.88 117.5H1126.18L1100.38 50.3L1074.88 117.5ZM1264.04 197V3.79998H1360.64C1383.44 3.79998 1400.24 9.79998 1411.04 21.8C1421.84 33.8 1427.24 49.9 1427.24 70.1C1427.24 83.1 1423.94 94.5 1417.34 104.3C1410.74 114.1 1401.74 121.4 1390.34 126.2C1393.14 128.4 1395.34 130.9 1396.94 133.7C1398.74 136.3 1400.64 140 1402.64 144.8L1425.44 197H1375.04L1353.44 147.8C1351.64 143.6 1349.34 140.6 1346.54 138.8C1343.74 136.8 1339.74 135.8 1334.54 135.8H1312.34V197H1264.04ZM1312.34 98.6H1348.04C1357.44 98.6 1364.74 96.3 1369.94 91.7C1375.34 86.9 1378.04 79.7 1378.04 70.1C1378.04 50.7 1368.74 41 1350.14 41H1312.34V98.6ZM1490.84 197V3.79998H1539.14V197H1490.84ZM1670.14 200C1657.34 200 1645.34 199 1634.14 197C1623.14 195.2 1613.64 192.5 1605.64 188.9V147.8C1614.44 151.6 1624.14 154.7 1634.74 157.1C1645.54 159.5 1655.74 160.7 1665.34 160.7C1677.34 160.7 1686.24 159.6 1692.04 157.4C1698.04 155.2 1701.04 150.4 1701.04 143C1701.04 138 1699.54 134 1696.54 131C1693.74 128 1689.04 125.4 1682.44 123.2C1676.04 120.8 1667.24 118 1656.04 114.8C1642.84 110.8 1632.34 106.4 1624.54 101.6C1616.74 96.6 1611.14 90.6 1607.74 83.6C1604.34 76.6 1602.64 68 1602.64 57.8C1602.64 39.4 1609.24 25.3 1622.44 15.5C1635.64 5.69999 1655.14 0.799987 1680.94 0.799987C1692.14 0.799987 1703.04 1.69999 1713.64 3.49999C1724.24 5.09999 1732.84 6.99999 1739.44 9.19999V50.6C1730.84 47.2 1722.14 44.7 1713.34 43.1C1704.74 41.5 1696.34 40.7 1688.14 40.7C1677.34 40.7 1668.54 41.7 1661.74 43.7C1655.14 45.7 1651.84 50.3 1651.84 57.5C1651.84 61.7 1653.04 65.1 1655.44 67.7C1657.84 70.1 1661.94 72.3 1667.74 74.3C1673.74 76.3 1681.84 78.7 1692.04 81.5C1707.84 85.7 1719.94 90.8 1728.34 96.8C1736.74 102.6 1742.54 109.4 1745.74 117.2C1748.94 124.8 1750.54 133.4 1750.54 143C1750.54 160 1743.94 173.8 1730.74 184.4C1717.54 194.8 1697.34 200 1670.14 200Z" fill="url(#paint0_linear_30_4)"/>
<defs>
<linearGradient id="paint0_linear_30_4" x1="-123.619" y1="100.5" x2="1856.7" y2="100.5" gradientUnits="userSpaceOnUse">
<stop stop-color="#4CB8C4"/>
<stop offset="1" stop-color="#3CD3AD"/>
</linearGradient>
</defs>
</svg>
